<svg xmlns="http://www.w3.org/2000/svg" xmlns:xlink="http://www.w3.org/1999/xlink" width="602.972" height="717.179" viewBox="0 0 602.972 717.179"><defs><style>.a{fill:url(#a);}.b{fill:#0a0a0a;font-size:30px;}.b,.d{font-family:NanumAmSeuTeReuDam, 나눔손글씨 암스테르담;}.c{fill:#262626;font-size:14px;font-family:AcuminPro-Regular, Acumin Pro;}.d,.f{fill:#fff;}.d{font-size:73px;}.e{fill:none;stroke:#fff;stroke-miterlimit:10;stroke-width:1.874px;}.f{font-size:113px;font-family:Montserrat-ExtraLight, Montserrat;font-weight:200;}.g{filter:url(#b);}</style><linearGradient id="a" x1="0.189" y1="1.062" x2="0.811" y2="-0.062" gradientUnits="objectBoundingBox"><stop offset="0" stop-color="#c4c4c4" stop-opacity="0"/><stop offset="1" stop-color="#4e4e4e" stop-opacity="0.969"/><stop offset="1" stop-color="#bad8ff"/></linearGradient><filter id="b" x="0" y="0" width="602.972" height="717.179" filterUnits="userSpaceOnUse"><feOffset dx="10" dy="19" input="SourceAlpha"/><feGaussianBlur stdDeviation="3" result="c"/><feFlood flood-color="#050505" flood-opacity="0.161"/><feComposite operator="in" in2="c"/><feComposite in="SourceGraphic"/></filter></defs><g transform="translate(-1047.2 -159.8)"><g class="g" transform="matrix(1, 0, 0, 1, 1047.2, 159.8)"><path class="a" d="M1586.875,848.978H1091.5c-24.475,0-44.3-21.525-44.3-48.1V207.9c0-26.579,19.822-48.1,44.3-48.1h495.377c24.475,0,44.3,21.525,44.3,48.1V801.062C1631.172,827.453,1611.35,848.978,1586.875,848.978Z" transform="translate(-1047.2 -159.8)"/></g><text class="b" transform="translate(1151 475.2)"><tspan x="0" y="0">케찹이의 브랜딩 노트</tspan><tspan x="0" y="40">브랜딩 수업을 들으며, 팀 활동을 하며</tspan><tspan x="0" y="80">느낀 점, 배운 점을 글로 정리해두었습니다.</tspan></text><text class="c" transform="translate(1285.903 791.109)"><tspan x="0" y="0">Ketchup’s Tistory</tspan></text><text class="d" transform="translate(1145.41 395.406)"><tspan x="0" y="0">티스토리 보러가기</tspan></text><g transform="translate(1293.597 596.721)"><ellipse class="e" cx="47.8" cy="46.8" rx="47.8" ry="46.8" transform="translate(0 30.005)"/><text class="f" transform="translate(13.402 109.479)"><tspan x="0" y="0">→</tspan></text></g></g></svg>