<svg xmlns="http://www.w3.org/2000/svg" xmlns:xlink="http://www.w3.org/1999/xlink" width="531.589" height="617.748" viewBox="0 0 531.589 617.748"><defs><style>.a{fill:url(#a);}.b{fill:#504c4c;font-size:30px;}.b,.d{font-family:NanumAmSeuTeReuDam, 나눔손글씨 암스테르담;}.c{fill:#3f464b;font-size:14px;font-family:AcuminPro-Regular, Acumin Pro;}.d,.f{fill:#fff;}.d{font-size:73px;}.e{fill:none;stroke:#fff;stroke-miterlimit:10;stroke-width:1.874px;}.f{font-size:113px;font-family:Montserrat-ExtraLight, Montserrat;font-weight:200;}</style><linearGradient id="a" x1="0.189" y1="1.062" x2="0.811" y2="-0.062" gradientUnits="objectBoundingBox"><stop offset="0" stop-color="#c4c4c4" stop-opacity="0"/><stop offset="1" stop-color="#404040" stop-opacity="0.969"/><stop offset="1" stop-color="#bad8ff"/></linearGradient></defs><g transform="translate(-1047.2 -159.8)"><path class="a" d="M1538.465,777.548H1087.524c-22.28,0-40.324-19.294-40.324-43.118V202.918c0-23.824,18.044-43.118,40.324-43.118h450.941c22.28,0,40.324,19.294,40.324,43.118V734.6C1578.789,758.253,1560.745,777.548,1538.465,777.548Z" transform="translate(0 0)"/><text class="b" transform="translate(1125 449.2)"><tspan x="0" y="0">케찹이의 브랜딩 노트</tspan><tspan x="0" y="40">브랜딩 수업을 들으며, 팀 활동을 하며</tspan><tspan x="0" y="80">느낀 점, 배운 점을 글로 정리해두었습니다.</tspan></text><text class="c" transform="translate(1259.742 719.679)"><tspan x="0" y="0">Ketchup’s Tistory</tspan></text><text class="d" transform="translate(1121.41 371.977)"><tspan x="0" y="0">티스토리 보러가기</tspan></text><line class="e" x1="20.6" y2="20.6" transform="translate(1534.289 185.9)"/><line class="e" x1="20.6" y1="20.6" transform="translate(1534.289 185.9)"/><g transform="translate(1267.169 540.485)"><ellipse class="e" cx="47.8" cy="46.8" rx="47.8" ry="46.8" transform="translate(0 29.72)"/><text class="f" transform="translate(13.831 108.715)"><tspan x="0" y="0">→</tspan></text></g></g></svg>