<svg xmlns="http://www.w3.org/2000/svg" xmlns:xlink="http://www.w3.org/1999/xlink" width="834.957" height="612.39" viewBox="0 0 834.957 612.39"><defs><style>.a,.b,.d,.f{fill:none;}.a{stroke:#000;}.a,.b{stroke-width:2px;}.b{stroke:#0b0b0b;}.c{fill:#fff;}.e,.g,.h{stroke:none;}.g{fill:#c4c2c2;}.i{filter:url(#a);}</style><filter id="a" x="464.001" y="243" width="354" height="358" filterUnits="userSpaceOnUse"><feOffset dy="3" input="SourceAlpha"/><feGaussianBlur stdDeviation="3" result="b"/><feFlood flood-opacity="0.161"/><feComposite operator="in" in2="b"/><feComposite in="SourceGraphic"/></filter></defs><g transform="translate(0.001)"><g class="a" transform="translate(0 224.39)"><rect class="e" width="834.954" height="388"/><rect class="f" x="1" y="1" width="832.954" height="386"/></g><line class="b" x2="834.954" y2="1" transform="translate(0 126)"/><g class="a"><rect class="e" width="288" height="127"/><rect class="f" x="1" y="1" width="286" height="125"/></g><g class="i" transform="matrix(1, 0, 0, 1, 0, 0)"><g class="c" transform="translate(473 249)"><path class="e" d="M 335.5 339.5 L 0.5 339.5 L 0.5 0.5 L 335.5 0.5 L 335.5 339.5 Z"/><path class="g" d="M 1 1 L 1 339 L 335 339 L 335 1 L 1 1 M 0 0 L 336 0 L 336 340 L 0 340 L 0 0 Z"/></g></g><g class="d"><path class="e" d="M0,0H834.954V612.39H0Z"/><path class="h" d="M 1.99993896484375 1.99993896484375 L 1.99993896484375 610.3904418945312 L 832.9540405273438 610.3904418945312 L 832.9540405273438 1.99993896484375 L 464.5448303222656 1.99993896484375 L 1.99993896484375 1.99993896484375 M -6.103515625e-05 -6.103515625e-05 C -6.103515625e-05 -6.103515625e-05 255.8062744140625 -6.103515625e-05 464.5448303222656 -6.103515625e-05 C 673.2832641601562 -6.103515625e-05 834.9540405273438 -6.103515625e-05 834.9540405273438 -6.103515625e-05 L 834.9540405273438 612.3904418945312 L -6.103515625e-05 612.3904418945312 L -6.103515625e-05 -6.103515625e-05 Z"/></g></g></svg>