<svg xmlns="http://www.w3.org/2000/svg" width="1640.002" height="714.638" viewBox="0 0 1640.002 714.638"><defs><style>.a,.b,.e{fill:none;}.a{stroke:#000;}.a,.b{stroke-width:2px;}.b{stroke:#0b0b0b;}.c{font-size:35px;font-family:NanumSquare_acR, NanumSquare_ac;}.d{stroke:none;}</style></defs><g transform="translate(-139.998 -456)"><g transform="translate(-518 117.5)"><g class="a" transform="translate(658 338.5)"><rect class="d" width="517.5" height="624.39"/><rect class="e" x="1" y="1" width="515.5" height="622.39"/></g><g class="a" transform="translate(658 562.89)"><rect class="d" width="517.5" height="400"/><rect class="e" x="1" y="1" width="515.5" height="398"/></g><line class="b" x2="517.5" y2="1" transform="translate(658 464.5)"/><g class="a" transform="translate(658 338.5)"><rect class="d" width="138" height="127"/><rect class="e" x="1" y="1" width="136" height="125"/></g></g><text class="c" transform="translate(206 535)"><tspan x="-41.195" y="0">Tittle</tspan></text><g transform="translate(43.25 117.5)"><g class="a" transform="translate(658 338.5)"><rect class="d" width="517.5" height="624.39"/><rect class="e" x="1" y="1" width="515.5" height="622.39"/></g><g class="a" transform="translate(658 562.89)"><rect class="d" width="517.5" height="400"/><rect class="e" x="1" y="1" width="515.5" height="398"/></g><line class="b" x2="517.5" y2="1" transform="translate(658 464.5)"/><g class="a" transform="translate(658 338.5)"><rect class="d" width="138" height="127"/><rect class="e" x="1" y="1" width="136" height="125"/></g></g><text class="c" transform="translate(767.25 535)"><tspan x="-41.195" y="0">Tittle</tspan></text><g transform="translate(604.5 117.5)"><g class="a" transform="translate(658 339.5)"><rect class="d" width="517.5" height="126.58"/><rect class="e" x="1" y="1" width="515.5" height="124.58"/></g><g class="a" transform="translate(658 339.89)"><rect class="d" width="517.5" height="713.248"/><rect class="e" x="1" y="1" width="515.5" height="711.248"/></g><line class="a" y2="124" transform="translate(789 342)"/><text class="c" transform="translate(724 417.5)"><tspan x="-41.195" y="0">Tittle</tspan></text></g></g></svg>