<svg xmlns="http://www.w3.org/2000/svg" width="1639.5" height="713.638" viewBox="0 0 1639.5 713.638"><defs><style>.a,.d{fill:none;}.a{stroke:#000;stroke-width:2px;}.b{font-size:35px;font-family:NanumSquare_acR, NanumSquare_ac;}.c{stroke:none;}</style></defs><g transform="translate(-140.5 -2587)"><g transform="translate(43.5 2247.5)"><g class="a" transform="translate(658 339.5)"><rect class="c" width="517.5" height="126.58"/><rect class="d" x="1" y="1" width="515.5" height="124.58"/></g><g class="a" transform="translate(658 339.89)"><rect class="c" width="517.5" height="713.248"/><rect class="d" x="1" y="1" width="515.5" height="711.248"/></g><line class="a" y2="124" transform="translate(789 342)"/></g><text class="b" transform="translate(767.5 2665)"><tspan x="-41.195" y="0">Tittle</tspan></text><g transform="translate(-517.5 2247.5)"><g class="a" transform="translate(658 339.5)"><rect class="c" width="517.5" height="126.58"/><rect class="d" x="1" y="1" width="515.5" height="124.58"/></g><g class="a" transform="translate(658 339.89)"><rect class="c" width="517.5" height="713.248"/><rect class="d" x="1" y="1" width="515.5" height="711.248"/></g><line class="a" y2="124" transform="translate(789 342)"/></g><text class="b" transform="translate(206.5 2665)"><tspan x="-41.195" y="0">Tittle</tspan></text><g transform="translate(43.5 2247.5)"><g class="a" transform="translate(658 339.5)"><rect class="c" width="517.5" height="126.58"/><rect class="d" x="1" y="1" width="515.5" height="124.58"/></g><g class="a" transform="translate(658 339.89)"><rect class="c" width="517.5" height="713.248"/><rect class="d" x="1" y="1" width="515.5" height="711.248"/></g><line class="a" y2="124" transform="translate(789 342)"/></g><text class="b" transform="translate(767.5 2665)"><tspan x="-41.195" y="0">Tittle</tspan></text><g transform="translate(604.5 2247.5)"><g class="a" transform="translate(658 339.5)"><rect class="c" width="517.5" height="126.58"/><rect class="d" x="1" y="1" width="515.5" height="124.58"/></g><g class="a" transform="translate(658 339.89)"><rect class="c" width="517.5" height="713.248"/><rect class="d" x="1" y="1" width="515.5" height="711.248"/></g><line class="a" y2="124" transform="translate(789 342)"/></g><text class="b" transform="translate(1328.5 2665)"><tspan x="-41.195" y="0">Tittle</tspan></text></g></svg>